<?xml version="1.0" standalone="no"?>
<!DOCTYPE svg PUBLIC "-//W3C//DTD SVG 20010904//EN"
 "http://www.w3.org/TR/2001/REC-SVG-20010904/DTD/svg10.dtd">
<svg version="1.0" xmlns="http://www.w3.org/2000/svg"
 width="243.000000pt" height="116.000000pt" viewBox="0 0 243.000000 116.000000"
 preserveAspectRatio="xMidYMid meet">

<g transform="translate(0.000000,116.000000) scale(0.100000,-0.100000)"
fill="#000000" stroke="none">
<path d="M0 933 l1 -228 29 79 c17 44 33 82 38 85 4 3 14 19 22 35 19 38 128
147 166 166 16 8 32 18 35 22 3 5 41 21 85 38 l79 29 -227 1 -228 0 0 -227z"/>
<path d="M782 1130 c42 -15 98 -43 125 -61 61 -41 147 -130 165 -169 7 -17 16
-30 19 -30 4 0 21 -38 38 -86 28 -77 31 -96 31 -204 0 -107 -3 -128 -29 -200
-17 -45 -51 -110 -76 -146 -45 -62 -147 -154 -172 -154 -6 0 -13 -4 -15 -10
-1 -5 -39 -23 -83 -39 l-80 -30 863 -1 862 0 0 580 0 580 -862 0 -863 -1 77
-29z"/>
<path d="M465 1130 c-195 -42 -352 -181 -417 -369 -19 -54 -23 -87 -23 -181 0
-70 5 -131 14 -155 64 -193 193 -322 386 -386 53 -18 257 -18 310 0 190 63
323 196 386 386 18 53 18 257 0 310 -62 186 -175 303 -366 380 -47 19 -229 29
-290 15z m180 -120 c-4 -6 5 -8 22 -4 19 4 50 -4 96 -25 128 -57 242 -206 241
-314 0 -31 3 -43 9 -35 12 18 1 -149 -13 -189 -7 -18 -16 -30 -21 -27 -5 3 -6
-2 -3 -10 3 -8 -2 -25 -11 -38 -11 -14 -15 -16 -12 -6 4 11 2 15 -7 12 -8 -3
-16 4 -19 15 -3 12 -13 21 -24 21 -16 0 -18 8 -17 72 1 68 0 69 -4 13 -3 -44
-6 -55 -12 -40 -8 18 -9 17 -9 -7 -1 -21 -6 -28 -21 -28 -19 0 -20 7 -20 90 0
73 3 90 15 90 10 0 15 -10 15 -34 0 -19 4 -37 8 -40 5 -3 9 20 9 50 0 33 -4
51 -9 46 -12 -12 -58 -3 -58 12 0 6 -5 4 -10 -4 -6 -10 -5 -17 6 -23 20 -11 8
-27 -19 -26 -20 1 -20 2 3 9 16 5 -23 8 -102 9 -71 1 -128 5 -128 9 0 5 48 8
108 7 59 -1 87 0 63 2 l-44 4 34 37 34 37 -40 -36 c-46 -40 -82 -47 -142 -26
-34 11 -43 12 -59 0 -10 -7 -14 -13 -10 -13 5 0 1 -11 -7 -24 -12 -17 -14 -38
-10 -79 5 -49 3 -56 -15 -61 -11 -4 -25 -20 -32 -36 -12 -28 -15 -30 -71 -30
-36 0 -59 -4 -59 -11 0 -6 -9 -24 -21 -40 -15 -22 -24 -27 -33 -20 -7 6 -15 8
-19 5 -9 -9 -29 35 -21 48 4 6 3 8 -4 4 -6 -4 -20 13 -33 41 -18 39 -22 67
-23 153 -1 117 9 173 26 149 8 -11 9 -10 4 4 -23 72 183 283 257 262 17 -5 18
-4 8 4 -15 10 -16 10 54 24 42 9 156 7 150 -3z m-468 -136 c-3 -3 -12 -4 -19
-1 -8 3 -5 6 6 6 11 1 17 -2 13 -5z m353 -280 c0 -14 -4 -23 -10 -19 -6 4 -9
-24 -8 -77 l2 -83 6 75 c4 54 8 68 13 50 8 -29 14 -250 7 -250 -13 1 -40 29
-40 41 0 12 -2 12 -9 1 -12 -19 -2 227 11 261 13 34 28 35 28 1z m91 -41 c1
-22 3 -29 6 -18 11 43 23 38 25 -10 l1 -50 7 50 7 50 1 -61 c2 -61 -9 -85 -38
-83 -10 0 -11 2 -2 6 6 2 11 17 11 31 l-2 27 -5 -25 c-4 -23 -5 -24 -13 -5 -6
17 -8 17 -8 3 -1 -10 -5 -18 -11 -18 -6 0 -10 30 -10 70 0 56 3 70 15 70 10 0
15 -11 16 -37z m42 30 c-7 -2 -19 -2 -25 0 -7 3 -2 5 12 5 14 0 19 -2 13 -5z
m88 -20 c1 -22 2 -24 7 -8 l5 20 8 -20 c6 -17 8 -17 8 -2 1 9 6 17 11 17 6 0
10 -32 10 -75 0 -65 -2 -75 -17 -74 -11 0 -13 3 -5 6 7 3 11 21 11 46 l-2 42
-7 -40 c-4 -22 -8 -33 -9 -25 -1 9 -4 11 -9 5 -4 -5 -16 -10 -27 -10 -15 0
-22 9 -26 35 l-6 35 -2 -38 c-2 -61 -21 -33 -21 31 0 51 3 58 20 59 17 2 20
-4 20 -39 0 -55 8 -44 11 15 3 50 18 65 20 20z m-194 -55 c-2 -13 -4 -5 -4 17
-1 22 1 32 4 23 2 -10 2 -28 0 -40z m21 -24 c-3 -37 0 -44 15 -44 10 0 15 -4
12 -10 -3 -5 -15 -10 -27 -10 -18 0 -20 4 -14 31 3 17 7 50 7 73 1 22 3 33 6
22 3 -10 3 -38 1 -62z m497 -14 c3 -5 1 -10 -4 -10 -6 0 -11 5 -11 10 0 6 2
10 4 10 3 0 8 -4 11 -10z m-965 -40 c0 -5 -4 -10 -9 -10 -6 0 -13 5 -16 10 -3
6 1 10 9 10 9 0 16 -4 16 -10z m593 -7 c-7 -2 -19 -2 -25 0 -7 3 -2 5 12 5 14
0 19 -2 13 -5z m50 0 c-7 -2 -19 -2 -25 0 -7 3 -2 5 12 5 14 0 19 -2 13 -5z
m-110 -10 c-7 -2 -19 -2 -25 0 -7 3 -2 5 12 5 14 0 19 -2 13 -5z m165 -10
c-10 -2 -26 -2 -35 0 -10 3 -2 5 17 5 19 0 27 -2 18 -5z m-105 -28 c8 -19 -2
-24 -54 -26 -56 -2 -97 9 -78 22 19 12 32 11 24 -1 -3 -5 -1 -10 4 -10 6 0 11
5 11 11 0 13 49 9 69 -6 12 -8 13 -6 8 8 -3 9 -2 17 2 17 5 0 11 -7 14 -15z
m80 -1 c-3 -9 -9 -12 -12 -7 -3 4 -10 11 -15 16 -5 4 0 7 12 7 15 0 20 -4 15
-16z m75 7 c6 -1 12 -5 12 -11 0 -5 -19 -9 -42 -9 -24 1 -35 3 -25 6 9 2 15 8
12 13 -3 4 3 7 12 5 10 -2 24 -4 31 -4z m-414 -28 c4 -14 3 -29 -3 -32 -14 -9
-10 -49 6 -55 7 -3 13 1 13 9 0 19 9 19 45 -3 25 -15 36 -16 66 -8 21 7 34 16
32 24 -3 7 1 10 11 6 9 -4 16 -1 16 6 0 7 7 10 15 6 10 -3 15 1 16 12 0 12 2
13 6 3 8 -20 40 -50 47 -43 3 3 33 4 66 3 49 -2 60 0 60 13 0 9 5 16 11 16 5
0 7 -5 3 -11 -5 -9 1 -10 22 -5 16 4 31 11 34 14 3 4 14 14 25 22 34 26 -43
-64 -80 -93 -20 -16 -66 -43 -103 -60 -60 -27 -77 -30 -167 -31 -136 -1 -215
30 -313 121 -45 42 -54 59 -22 43 11 -5 29 -14 39 -20 11 -5 35 -6 55 -3 28 4
36 2 36 -10 0 -21 29 -30 37 -11 3 8 -3 21 -13 29 -19 14 -17 16 9 19 6 0 14
12 15 25 3 16 -1 22 -10 19 -7 -3 -13 -9 -13 -14 0 -20 -16 -32 -35 -27 -11 3
-20 11 -20 19 0 8 -6 11 -15 8 -9 -4 -15 0 -15 10 0 22 40 21 41 -1 1 -16 2
-16 6 -1 4 16 21 24 54 27 10 1 19 -9 23 -26z m303 11 c-3 -3 -12 -4 -19 -1
-8 3 -5 6 6 6 11 1 17 -2 13 -5z m-153 -39 c-4 -8 -10 -15 -15 -15 -4 0 -6 7
-3 15 4 8 10 15 15 15 4 0 6 -7 3 -15z m236 5 c0 -5 -7 -10 -15 -10 -8 0 -15
5 -15 10 0 6 7 10 15 10 8 0 15 -4 15 -10z m-123 -6 c-3 -3 -12 -4 -19 -1 -8
3 -5 6 6 6 11 1 17 -2 13 -5z m60 0 c-3 -3 -12 -4 -19 -1 -8 3 -5 6 6 6 11 1
17 -2 13 -5z m-294 -21 c-7 -2 -19 -2 -25 0 -7 3 -2 5 12 5 14 0 19 -2 13 -5z"/>
<path d="M517 999 c7 -7 15 -10 18 -7 3 3 -2 9 -12 12 -14 6 -15 5 -6 -5z"/>
<path d="M466 969 c-14 -11 -26 -28 -26 -38 0 -26 -11 -33 -28 -18 -13 10 -15
9 -10 -11 4 -12 2 -20 -2 -17 -5 3 -10 0 -12 -5 -2 -6 -10 -12 -18 -14 -8 -2
-23 -7 -34 -11 -11 -5 -21 -3 -26 5 -5 8 -15 10 -26 6 -11 -4 -21 -7 -24 -7
-10 -1 -31 -22 -42 -42 -5 -11 -6 -17 -1 -14 6 4 19 -3 31 -13 25 -23 17 -63
-13 -69 -10 -2 -25 -9 -33 -17 -11 -12 -6 -14 40 -14 94 0 192 -12 222 -26 25
-12 27 -12 16 2 -11 13 -8 14 26 11 25 -2 38 -8 36 -16 -1 -7 2 -10 8 -6 6 3
8 10 5 15 -7 12 32 33 45 25 6 -4 9 -1 8 6 -2 6 3 14 11 17 9 3 11 0 6 -8 -5
-9 -4 -11 4 -6 6 4 8 12 5 18 -5 7 -1 9 9 5 9 -3 19 -1 23 5 5 7 2 8 -6 3 -9
-5 -11 -4 -6 3 9 15 39 10 62 -8 16 -14 16 -13 3 8 -8 12 -19 20 -26 18 -6 -3
-14 2 -17 10 -3 8 -1 14 4 14 6 0 10 4 10 10 0 5 -5 9 -12 7 -7 -1 -15 15 -18
36 -6 32 -5 37 9 32 11 -3 10 0 -3 10 -11 8 -14 15 -7 15 9 0 8 4 -3 15 -11
11 -21 13 -40 5 -14 -5 -26 -6 -26 -2 0 4 -9 13 -21 20 -16 10 -24 10 -35 1
-11 -9 -14 -9 -14 1 0 7 -8 19 -17 26 -16 12 -16 15 -3 24 8 5 10 10 4 10 -6
0 -23 -9 -38 -21z m144 -151 c0 -21 -4 -38 -10 -38 -5 0 -10 -7 -10 -16 0 -25
-29 -47 -68 -51 -27 -2 -33 -1 -22 7 10 6 11 10 3 10 -9 0 -13 19 -13 60 0 57
2 61 28 72 15 6 33 10 40 9 6 -1 12 4 12 10 0 7 8 5 20 -6 13 -12 20 -31 20
-57z m-185 42 c3 -5 2 -10 -4 -10 -5 0 -13 5 -16 10 -3 6 -2 10 4 10 5 0 13
-4 16 -10z m55 -25 c0 -9 -6 -12 -15 -9 -8 4 -12 10 -9 15 8 14 24 10 24 -6z
m162 -27 c-7 -7 -8 -16 -3 -22 5 -7 -3 -22 -21 -40 -30 -29 -30 -29 -23 -5 4
13 12 26 16 27 5 2 9 22 9 44 0 36 1 38 16 23 12 -12 14 -19 6 -27z m-252 -3
c0 -18 -4 -23 -15 -19 -25 10 -19 33 13 43 1 1 2 -10 2 -24z m89 -32 c0 -16
-3 -22 -6 -15 -8 21 -20 13 -18 -13 2 -14 -1 -25 -6 -25 -5 0 -9 18 -9 40 0
33 3 40 20 40 15 0 20 -6 19 -27z m-90 -18 c2 -11 8 -23 15 -27 6 -5 2 -8 -11
-8 -16 0 -20 5 -16 20 3 11 1 20 -5 20 -5 0 -12 -13 -15 -29 -5 -22 -12 -29
-27 -28 -26 2 -26 17 0 17 16 0 20 7 20 31 0 24 4 30 17 27 10 -2 19 -12 22
-23z m-49 5 c0 -5 -7 -10 -15 -10 -8 0 -15 5 -15 10 0 6 7 10 15 10 8 0 15 -4
15 -10z"/>
<path d="M541 853 c-1 -6 -10 -9 -21 -6 -16 4 -20 0 -20 -22 0 -25 3 -27 27
-20 37 9 38 11 25 37 -6 13 -11 18 -11 11z"/>
<path d="M584 836 c1 -8 5 -18 8 -22 4 -3 5 1 4 10 -1 8 -5 18 -8 22 -4 3 -5
-1 -4 -10z"/>
<path d="M513 761 c1 -14 9 -26 17 -28 10 -3 11 -2 4 4 -7 4 -14 17 -17 28 -5
16 -5 15 -4 -4z"/>
<path d="M702 965 c-6 -14 -10 -25 -8 -25 2 0 11 11 20 25 9 14 13 25 8 25 -5
0 -14 -11 -20 -25z"/>
<path d="M375 960 c-3 -6 1 -7 9 -4 18 7 21 14 7 14 -6 0 -13 -4 -16 -10z"/>
<path d="M329 930 l-24 -19 25 0 c14 0 19 3 12 6 -10 4 -9 8 5 19 10 7 15 14
12 14 -4 0 -17 -9 -30 -20z"/>
<path d="M328 893 c6 -2 18 -2 25 0 6 3 1 5 -13 5 -14 0 -19 -2 -12 -5z"/>
<path d="M208 783 c7 -3 16 -2 19 1 4 3 -2 6 -13 5 -11 0 -14 -3 -6 -6z"/>
<path d="M699 683 l-24 -28 28 24 c25 23 32 31 24 31 -2 0 -14 -12 -28 -27z"/>
<path d="M985 680 c3 -5 8 -10 11 -10 2 0 4 5 4 10 0 6 -5 10 -11 10 -5 0 -7
-4 -4 -10z"/>
<path d="M781 664 c0 -11 3 -14 6 -6 3 7 2 16 -1 19 -3 4 -6 -2 -5 -13z"/>
<path d="M955 669 c-4 -6 -5 -12 -2 -15 2 -3 7 2 10 11 7 17 1 20 -8 4z"/>
<path d="M207 652 c-15 -2 -25 -8 -21 -13 3 -5 10 -7 15 -4 5 4 9 -1 9 -9 0
-11 9 -16 30 -16 17 0 30 5 30 11 0 5 -4 7 -10 4 -5 -3 -18 -1 -27 4 -14 8 -9
10 25 11 23 0 42 4 42 8 0 8 -43 10 -93 4z"/>
<path d="M330 650 c-12 -8 -11 -10 8 -10 12 0 22 5 22 10 0 13 -11 13 -30 0z"/>
<path d="M390 648 c0 -4 7 -8 15 -8 8 0 15 4 15 8 0 5 -7 9 -15 9 -8 0 -15 -4
-15 -9z"/>
<path d="M838 653 c7 -3 16 -2 19 1 4 3 -2 6 -13 5 -11 0 -14 -3 -6 -6z"/>
<path d="M888 653 c6 -2 18 -2 25 0 6 3 1 5 -13 5 -14 0 -19 -2 -12 -5z"/>
<path d="M290 620 c0 -5 5 -10 10 -10 6 0 10 5 10 10 0 6 -4 10 -10 10 -5 0
-10 -4 -10 -10z"/>
<path d="M195 590 c-19 -8 -19 -9 3 -9 12 -1 22 4 22 9 0 6 -1 10 -2 9 -2 0
-12 -4 -23 -9z"/>
<path d="M240 590 c-13 -8 -12 -10 3 -10 9 0 17 5 17 10 0 12 -1 12 -20 0z"/>
<path d="M270 590 c0 -5 7 -10 16 -10 8 0 12 5 9 10 -3 6 -10 10 -16 10 -5 0
-9 -4 -9 -10z"/>
<path d="M310 588 c0 -4 16 -8 35 -8 19 0 35 5 35 10 0 6 -16 10 -35 8 -19 -1
-35 -6 -35 -10z"/>
<path d="M971 584 c0 -11 3 -14 6 -6 3 7 2 16 -1 19 -3 4 -6 -2 -5 -13z"/>
<path d="M996 525 c-9 -26 -7 -32 5 -12 6 10 9 21 6 23 -2 3 -7 -2 -11 -11z"/>
<path d="M273 489 c-35 -22 -46 -37 -15 -20 22 13 58 40 52 41 -3 0 -20 -10
-37 -21z"/>
<path d="M861 494 c0 -11 3 -14 6 -6 3 7 2 16 -1 19 -3 4 -6 -2 -5 -13z"/>
<path d="M982 460 c0 -14 2 -19 5 -12 2 6 2 18 0 25 -3 6 -5 1 -5 -13z"/>
<path d="M185 429 c-4 -6 -5 -12 -2 -15 2 -3 7 2 10 11 7 17 1 20 -8 4z"/>
<path d="M640 280 c-21 -7 -21 -8 -5 -9 11 0 27 4 35 9 18 11 5 11 -30 0z"/>
<path d="M710 232 c0 -5 7 -9 15 -9 8 0 12 4 9 9 -3 4 -9 8 -15 8 -5 0 -9 -4
-9 -8z"/>
<path d="M770 229 c0 -5 5 -7 10 -4 6 3 10 8 10 11 0 2 -4 4 -10 4 -5 0 -10
-5 -10 -11z"/>
<path d="M461 214 c0 -11 3 -14 6 -6 3 7 2 16 -1 19 -3 4 -6 -2 -5 -13z"/>
<path d="M505 220 c-3 -5 1 -10 9 -10 9 0 16 5 16 10 0 6 -4 10 -9 10 -6 0
-13 -4 -16 -10z"/>
<path d="M540 220 c0 -5 5 -10 10 -10 6 0 10 5 10 10 0 6 -4 10 -10 10 -5 0
-10 -4 -10 -10z"/>
<path d="M665 220 c3 -5 8 -10 11 -10 2 0 4 5 4 10 0 6 -5 10 -11 10 -5 0 -7
-4 -4 -10z"/>
<path d="M525 190 c-11 -4 -27 -5 -35 -2 -8 3 -12 2 -9 -2 11 -11 51 -16 67
-7 20 11 2 20 -23 11z"/>
<path d="M570 185 c0 -7 12 -11 28 -10 35 1 35 20 0 21 -16 1 -28 -4 -28 -11z"/>
<path d="M650 190 c0 -5 14 -10 30 -10 17 0 30 4 30 8 0 4 -13 9 -30 10 -16 1
-30 -2 -30 -8z"/>
<path d="M0 228 l0 -228 228 0 227 1 -79 29 c-44 17 -82 33 -85 38 -3 4 -19
14 -36 22 -38 19 -145 127 -165 166 -8 16 -18 32 -22 35 -5 3 -21 41 -38 85
l-29 79 -1 -227z"/>
</g>
</svg>
